{"title":"The Smurfs 2 2013 CAM XViD UNiQUE","uid":8781137,"size":1479032832,"categoryP":"video","categoryS":"movies","magnet":"?xt=urn:btih:a7497e78173be3961a9655e8b7485e9fada59a1f&amp;dn=The+Smurfs+2+2013+CAM+XViD+UNiQUE&amp;tr=udp%3A%2F%2Ftracker.openbittorrent.com%3A80&amp;tr=udp%3A%2F%2Fopen.demonii.com%3A1337&amp;tr=udp%3A%2F%2Ftracker.coppersurfer.tk%3A6969&amp;tr=udp%3A%2F%2Fexodus.desync.com%3A6969","seeders":2,"leechers":0,"uploader":".BONE.","files":-1,"time":1375714400,"description":"[img]http://www.ultraimg.com/images/gE8qb.jpg[/img]\n\nThe Smurfs team up with their human friends to rescue Smurfette, who has been kidnapped by Gargamel since she knows a secret spell that can turn the evil sorcerer's newest creation - creatures called the Naughties - into real Smurfs. \n\n\n\nFormat : AVI\nFormat/Info : Audio Video Interleave\nFile size : 1.37 GiB\nDuration : 1h 37mn\nOverall bit rate : 2 019 Kbps\nWriting application : VirtualDubMod 1.5.10.2 (build 2540/release)\nWriting library : VirtualDubMod build 2540/release\n\nVideo\nID : 0\nFormat : MPEG-4 Visual\nFormat profile : Advanced Simple@L5\nFormat settings, BVOP : 2\nFormat settings, QPel : No\nFormat settings, GMC : No warppoints\nFormat settings, Matrix : Default (H.263)\nMuxing mode : Packed bitstream\nCodec ID : XVID\nCodec ID/Hint : XviD\nDuration : 1h 37mn\nBit rate : 1 879 Kbps\nWidth : 628 pixels\nHeight : 312 pixels\nDisplay aspect ratio : 2.013\nFrame rate : 29.970 fps\nColor space : YUV\nChroma subsampling : 4:2:0\nBit depth : 8 bits\nScan type : Progressive\nCompression mode : Lossy\nBits/(Pixel*Frame) : 0.320\nStream size : 1.27 GiB (93%)\nWriting library : XviD 64\n\nAudio\nID : 1\nFormat : MPEG Audio\nFormat version : Version 1\nFormat profile : Layer 3\nCodec ID : 55\nCodec ID/Hint : MP3\nDuration : 1h 37mn\nBit rate mode : Constant\nBit rate : 128 Kbps\nChannel(s) : 2 channels\nSampling rate : 44.1 KHz\nCompression mode : Lossy\nStream size : 88.9 MiB (6%)\nAlignment : Split accross interleaves\nInterleave, duration : 33 ms (1.00 video frame)\nInterleave, preload duration : 500 ms\n\nSource Used Los Pitufos 2 (2013) [TSscreener HQ] Castelano / VAiN - Thanks\n &lt;a href=&quot;\nhttp://www.imdb.com/title/tt2017020/&quot; rel=&quot;nofollow&quot; target=&quot;_NEW&quot;&gt;\nhttp://www.imdb.com/title/tt2017020/&lt;/a&gt;","torrent":{"xt":"urn:btih:a7497e78173be3961a9655e8b7485e9fada59a1f","amp;dn":"The+Smurfs+2+2013+CAM+XViD+UNiQUE","amp;tr":["udp%3A%2F%2Ftracker.openbittorrent.com%3A80","udp%3A%2F%2Fopen.demonii.com%3A1337","udp%3A%2F%2Ftracker.coppersurfer.tk%3A6969","udp%3A%2F%2Fexodus.desync.com%3A6969"],"infoHash":"a7497e78173be3961a9655e8b7485e9fada59a1f","infoHashBuffer":{"type":"Buffer","data":[167,73,126,120,23,59,227,150,26,150,85,232,183,72,94,159,173,165,154,31]},"announce":[],"urlList":[]}}